<?xml version="1.0" standalone="no"?>
<!DOCTYPE svg PUBLIC "-//W3C//DTD SVG 20010904//EN"
 "http://www.w3.org/TR/2001/REC-SVG-20010904/DTD/svg10.dtd">
<svg version="1.0" xmlns="http://www.w3.org/2000/svg"
 width="16.000000pt" height="16.000000pt" viewBox="0 0 16.000000 16.000000"
 preserveAspectRatio="xMidYMid meet">
<metadata>
Created by potrace 1.11, written by Peter Selinger 2001-2013
</metadata>
<g transform="translate(0.000000,16.000000) scale(0.006154,-0.006154)"
fill="#000000" stroke="none">
<path d="M1005 2560 c-90 -15 -203 -44 -214 -56 -3 -3 3 -4 15 0 70 21 180 37
335 48 401 27 692 -41 834 -194 61 -66 91 -120 123 -218 23 -72 52 -216 52
-261 l0 -29 -407 1 c-500 1 -1280 13 -1286 19 -8 8 22 199 44 278 22 83 65
173 106 223 23 29 24 31 4 14 -97 -82 -192 -366 -196 -587 -2 -83 -6 -102 -27
-140 -40 -69 -68 -126 -68 -140 0 -9 3 -9 10 2 14 23 19 8 13 -40 l-6 -45 -13
35 -12 35 -1 -47 c-1 -27 4 -48 9 -48 6 0 10 6 10 13 0 8 4 7 10 -3 5 -8 10
-51 10 -95 l0 -81 -69 -61 c-100 -90 -134 -177 -111 -286 12 -60 33 -92 113
-176 81 -84 93 -118 112 -300 17 -170 112 -278 300 -341 84 -28 99 -31 186
-31 82 0 137 18 215 70 l43 29 37 -19 c46 -23 143 -26 202 -5 39 14 41 13 64
-11 93 -100 264 -111 460 -28 44 19 105 50 136 71 61 40 140 124 153 164 7 22
7 23 -4 6 -65 -98 -109 -138 -227 -200 -110 -58 -193 -78 -307 -74 -85 3 -106
8 -144 30 -24 14 -52 35 -63 47 -18 20 -18 21 9 53 60 71 68 141 19 173 -22
14 -24 20 -18 66 6 45 4 53 -19 77 -14 15 -27 36 -29 47 -4 22 -49 34 -128 34
-37 0 -52 -6 -82 -33 -35 -31 -68 -96 -68 -135 0 -10 -14 -28 -31 -40 -31 -23
-31 -25 -27 -93 3 -60 7 -73 28 -90 l25 -20 -44 -39 c-73 -65 -185 -85 -301
-55 -234 61 -320 134 -358 301 -21 92 -34 261 -21 288 15 34 71 62 152 77 54
10 86 24 148 65 80 53 133 72 169 60 28 -9 120 20 209 65 183 92 314 94 445 7
82 -54 132 -77 171 -77 54 0 95 -22 145 -76 72 -79 106 -101 206 -134 115 -39
142 -60 159 -125 11 -41 14 -45 15 -20 1 52 36 111 112 190 122 128 141 179
118 316 -12 72 -14 75 -76 134 -120 114 -133 149 -94 253 22 57 26 107 10 117
-6 4 -10 -10 -10 -34 0 -23 -4 -41 -9 -41 -11 0 -20 82 -11 95 4 6 -8 44 -28
85 -29 63 -35 84 -33 133 2 38 -3 70 -14 94 -9 19 -21 77 -25 129 -10 120 -40
207 -101 299 -95 142 -200 211 -401 261 -95 24 -123 26 -353 29 -137 2 -272 0
-300 -5z m665 -847 c407 -5 480 -8 464 -20 -16 -11 -18 -26 -16 -106 7 -278
30 -407 82 -462 19 -20 19 -21 -30 -63 -45 -39 -180 -227 -180 -251 0 -11 104
-91 117 -91 9 1 62 68 146 185 31 44 63 80 70 80 19 0 50 -74 55 -131 5 -62
-9 -92 -83 -175 -30 -33 -57 -69 -60 -80 -9 -26 -16 -24 -54 15 -37 38 -53 46
-155 71 -62 16 -77 26 -140 85 -39 37 -93 81 -119 99 -26 18 -76 59 -110 90
-95 88 -173 148 -230 178 -43 23 -65 27 -127 28 -95 0 -112 -10 -320 -165 -87
-66 -168 -120 -180 -120 -12 0 -54 -22 -93 -50 -59 -41 -87 -53 -157 -68 -106
-23 -149 -45 -163 -83 -6 -16 -14 -29 -18 -29 -11 0 -75 83 -98 127 -23 47
-30 138 -9 131 7 -3 32 -43 56 -91 25 -48 49 -87 54 -87 5 0 31 18 58 39 27
22 54 41 61 43 6 2 -3 30 -24 73 -19 39 -42 88 -51 110 -10 22 -27 50 -38 63
l-22 22 41 43 c38 38 42 48 48 107 4 36 13 115 21 175 17 133 22 262 11 293
l-8 22 359 0 c197 0 576 -3 842 -7z m-1210 -43 c13 -24 7 -106 -21 -292 -10
-70 -19 -143 -19 -164 0 -33 -9 -47 -84 -125 -86 -89 -107 -128 -119 -224 l-3
-30 -13 30 c-20 47 -8 145 25 213 26 51 35 60 95 88 79 39 96 56 82 86 -7 16
-5 39 9 83 29 97 22 132 -19 93 l-23 -21 0 45 c0 38 4 49 25 62 22 15 25 23
25 80 0 92 16 122 40 76z m1704 -16 c4 -9 6 -61 5 -116 -1 -55 1 -102 4 -104
3 -3 15 1 27 8 20 12 21 18 15 83 -5 54 -4 67 5 59 7 -7 12 -39 11 -78 0 -37
4 -78 10 -93 9 -25 9 -26 -15 -9 -37 24 -39 21 -32 -34 3 -27 9 -72 12 -100 5
-41 12 -54 40 -75 19 -15 53 -33 77 -41 52 -18 89 -72 113 -164 14 -54 14 -73
4 -117 -6 -29 -15 -53 -19 -53 -5 0 -14 27 -20 59 -18 90 -49 138 -132 206
-82 68 -91 85 -109 211 -16 118 -25 374 -13 374 6 0 14 -7 17 -16z m76 -369
c0 -8 -2 -15 -4 -15 -2 0 -6 7 -10 15 -3 8 -1 15 4 15 6 0 10 -7 10 -15z m45
-83 c-6 -7 -35 18 -35 31 0 5 9 2 20 -8 11 -10 18 -20 15 -23z m-45 -213 c0
-6 -4 -7 -10 -4 -5 3 -10 11 -10 16 0 6 5 7 10 4 6 -3 10 -11 10 -16z m-1900
-14 c-7 -9 -15 -13 -17 -11 -7 7 7 26 19 26 6 0 6 -6 -2 -15z m1830 5 c0 -5
-4 -10 -9 -10 -6 0 -13 5 -16 10 -3 6 1 10 9 10 9 0 16 -4 16 -10z m-3 -32
c18 -13 33 -27 33 -31 0 -10 -3 -9 -47 18 -18 11 -33 23 -33 28 0 12 12 8 47
-15z m-1812 2 c-3 -5 -11 -10 -16 -10 -6 0 -7 5 -4 10 3 6 11 10 16 10 6 0 7
-4 4 -10z m11 -36 c-15 -14 -30 -23 -34 -19 -4 4 6 18 22 31 37 33 48 21 12
-12z m1782 6 c29 -18 43 -40 24 -40 -12 0 -78 59 -67 60 6 0 25 -9 43 -20z
m-1767 -40 c-19 -16 -37 -27 -40 -24 -8 7 47 54 62 54 7 -1 -3 -14 -22 -30z
m1714 20 c3 -5 2 -10 -4 -10 -5 0 -13 5 -16 10 -3 6 -2 10 4 10 5 0 13 -4 16
-10z m-1700 -54 c-22 -19 -42 -29 -44 -23 -5 13 48 57 69 57 8 0 -2 -15 -25
-34z m1719 -5 c23 -25 14 -27 -25 -4 -32 19 -42 51 -11 34 9 -5 26 -19 36 -30z
m-1674 0 c0 -13 -50 -44 -58 -36 -4 4 4 15 17 26 25 20 41 24 41 10z m1635
-25 c17 -13 27 -27 23 -31 -3 -3 -21 7 -40 24 -39 36 -26 41 17 7z"/>
<path d="M700 1691 l-175 -6 2 -77 c1 -50 8 -90 19 -115 18 -36 18 -36 24 -13
l6 25 16 -30 c9 -16 27 -40 40 -53 23 -21 26 -22 74 -8 27 8 133 57 235 108
158 79 188 98 202 126 l17 32 145 0 c130 0 146 -2 152 -17 22 -63 156 -166
292 -224 132 -57 178 -29 226 134 9 31 21 57 26 57 11 0 12 3 -7 -59 -21 -70
-11 -88 15 -28 15 31 21 62 19 90 l-3 42 -55 7 c-76 10 -1056 17 -1270 9z
m-142 -126 l1 -20 -9 20 c-5 11 -8 34 -8 50 l0 30 8 -30 c4 -16 8 -39 8 -50z"/>
<path d="M1269 1559 c-52 -8 -112 -33 -130 -55 -17 -21 2 -17 63 11 66 31 137
32 215 5 65 -23 77 -24 68 -10 -21 34 -139 60 -216 49z"/>
<path d="M2031 1473 c-7 -43 -23 -102 -36 -130 -23 -51 -26 -53 -62 -53 -65 0
-153 28 -260 85 -57 29 -103 51 -103 49 0 -15 33 -63 62 -91 46 -44 106 -69
218 -89 52 -9 96 -18 98 -19 2 -2 9 -42 17 -89 8 -48 17 -91 20 -96 13 -22 26
-8 24 24 -2 22 7 54 26 92 26 51 30 73 36 174 7 134 9 133 18 -10 l6 -105 15
44 c25 77 -15 291 -55 291 -8 0 -17 -29 -24 -77z"/>
<path d="M496 1504 c-3 -16 -9 -83 -12 -150 -6 -95 -3 -136 10 -197 10 -42 21
-77 25 -77 4 0 15 -6 25 -13 16 -11 17 -17 7 -36 -10 -17 -10 -26 0 -37 20
-24 29 -2 39 90 10 98 27 133 68 142 154 34 372 154 372 205 0 16 -36 3 -175
-66 -114 -56 -221 -95 -262 -95 -17 0 -30 34 -54 144 -24 110 -34 130 -43 90z"/>
<path d="M649 2423 c-13 -16 -12 -17 4 -4 9 7 17 15 17 17 0 8 -8 3 -21 -13z"/>
<path d="M1213 629 c-47 -14 -85 -58 -138 -161 -26 -51 -55 -101 -63 -110 -22
-26 -59 -22 -114 14 -80 50 -189 52 -248 2 -83 -71 -50 -199 69 -258 66 -33
94 -38 182 -30 60 5 76 10 72 20 -4 10 -16 12 -42 8 -20 -3 -65 -1 -101 6
-114 21 -178 68 -187 137 -6 45 15 96 46 113 33 17 40 12 34 -24 -14 -88 31
-166 96 -166 48 0 66 14 99 75 21 39 32 50 52 50 20 0 26 -6 28 -28 2 -16 -1
-42 -7 -58 -10 -30 -3 -37 17 -17 7 7 12 39 12 71 0 51 6 70 41 133 87 159
154 214 260 214 37 0 69 -7 99 -22 42 -22 48 -29 86 -123 40 -95 42 -104 37
-177 -5 -63 -3 -82 11 -103 25 -38 29 -26 15 43 -10 49 -10 63 0 76 21 25 27
20 51 -39 26 -65 50 -85 100 -85 62 0 100 61 100 157 0 24 3 43 6 43 21 0 65
-46 74 -78 34 -127 -113 -242 -259 -202 -58 15 -64 5 -10 -20 52 -23 147 -27
187 -6 36 19 78 65 91 99 18 47 13 138 -9 174 -44 73 -133 90 -210 39 -86 -57
-126 -35 -161 89 -24 87 -41 112 -92 136 -46 20 -166 25 -224 8z"/>
</g>
</svg>
